<?xml version="1.0" encoding="UTF-8" standalone="no"?>
<!-- Generator: Adobe Illustrator 17.1.0, SVG Export Plug-In . SVG Version: 6.00 Build 0)  -->

<svg
   version="1.1"
   id="Layer_1"
   x="0px"
   y="0px"
   width="472px"
   height="392px"
   viewBox="0 0 472 392"
   enable-background="new 0 0 472 392"
   xml:space="preserve"
   sodipodi:docname="Freesample.svg"
   inkscape:version="1.1.1 (3bf5ae0d25, 2021-09-20)"
   xmlns:inkscape="http://www.inkscape.org/namespaces/inkscape"
   xmlns:sodipodi="http://sodipodi.sourceforge.net/DTD/sodipodi-0.dtd"
   xmlns="http://www.w3.org/2000/svg"
   xmlns:svg="http://www.w3.org/2000/svg"><defs
   id="defs97" /><sodipodi:namedview
   id="namedview95"
   pagecolor="#ffffff"
   bordercolor="#666666"
   borderopacity="1.0"
   inkscape:pageshadow="2"
   inkscape:pageopacity="0.0"
   inkscape:pagecheckerboard="0"
   showgrid="false"
   inkscape:zoom="2.0637755"
   inkscape:cx="236.21755"
   inkscape:cy="196"
   inkscape:window-width="1920"
   inkscape:window-height="1017"
   inkscape:window-x="1912"
   inkscape:window-y="-8"
   inkscape:window-maximized="1"
   inkscape:current-layer="Layer_1" />
<g
   id="Layer_3">
	<path
   fill="#FFB564"
   d="M288.7,187.7c-53.7-32.6-119.8,1-119.8,1s11.6,92.6,11.4,121.4c-0.8,2-1,4.1-0.4,6.3   c-0.2,1.2-0.6,1.7-1,1.7h1.7c1.1,3,2.9,4.3,5.8,5.3c10.9,4,21.5,6.8,33.1,7.7c3.6,0.3,7.1,0.2,10.5-0.2c1.6,1.5,4,2.4,7.1,2.1   c13.2-1.2,28-1.9,38.6-10.3c1.7-1.4,2.7-2.7,3.1-4.7h0.8L288.7,187.7z"
   id="path409" />
	<polygon
   fill="#52E2D7"
   points="173.2,146.4 180.5,184 206.6,177.2 200.1,144  "
   id="polygon406" />
	<path
   fill="#FFFBE8"
   d="M222.6,133.8c0,0-17.9-15.6-5.3,39.9c0.6,2.5,19.4,3.4,19.4,3.4L222.6,133.8z"
   id="path403" />
	<path
   fill="#F9A035"
   d="M188.6,181.4c0,0-20.6,0-20.6,12.4c0.1,17.2,13.4,105.6,13.1,119.9c-0.2,9.3,19.1,13.6,19.1,13.6"
   id="path400" />
	<path
   fill="#FFB564"
   d="M200.2,93.3c0,0,9.7,50.2,11.6,48.4c2-1.8,10.8-7.9,10.8-7.9l-13.5-40.5H200.2z"
   id="path397" />
	<path
   fill="#FFFBE8"
   d="M184.1,123.6c0,0-12.9,24.6-10.9,22.8c2-1.8,27-2.4,27-2.4L184.1,123.6z"
   id="path394" />
	<path
   fill="#F25F68"
   d="M257.9,92.8c-1.5,2-3,4.1-4.4,6.3c-1.2,1.9-2.9,2.3-4.6,1.9c-1.7,3.4-3.5,6.7-5.7,9.8   c-6.2,22.4-0.7,41.7-8.7,63.8c-1.3,3.5,0.3,0.3,2.2,2.5c5.6-3,31.1,3.5,38.7,4.2c1.7-2.3-9.1-3.3-10.3-6.6c1.4,3.9,0.2-5.2,0.2-6.1   c0.3-2.6,0-5.5,0.3-8.1c0.7-4.6-1.4-6.4-0.8-11c1.9-14.5,3.4-29.4,3-44.1c-2.2-3.9-4.1-7.9-5.6-12.1   C261,92.9,259.4,92.7,257.9,92.8z"
   id="path391" />
</g>
<g
   id="Layer_2">
	
		<path
   style="color:#000000;fill:#af3a46;stroke-linecap:square;stroke-linejoin:round;stroke-miterlimit:10;-inkscape-stroke:none"
   d="m 260.7793,84.441406 a 2.4883987,2.4883987 0 0 0 -2.42969,1.048828 l -15.19922,22.099606 a 2.4883987,2.4883987 0 0 0 -0.42187,1.12305 l -7.19922,62.09961 -0.28711,2.47266 4.94336,0.57226 0.28515,-2.4707 7.12891,-61.48633 11.92773,-17.339843 5.66993,18.560543 -2.58399,63.57813 -0.0996,2.48633 4.9707,0.20117 0.10157,-2.48633 2.59961,-64 a 2.4883987,2.4883987 0 0 0 -0.10547,-0.82812 L 262.7793,86.173828 a 2.4883987,2.4883987 0 0 0 -2,-1.732422 z"
   id="path451" />
	
		<path
   style="color:#000000;fill:#af3a46;stroke-linecap:square;stroke-linejoin:round;stroke-miterlimit:10;-inkscape-stroke:none"
   d="m 183.69141,121.14648 a 2.4883987,2.4883987 0 0 0 -1.8125,1.33204 l -10.30079,20.40039 a 2.4883987,2.4883987 0 0 0 -0.23242,1.52929 l 6.40039,38.40039 0.40821,2.45508 4.9082,-0.81836 -0.4082,-2.45508 -6.26563,-37.5957 8.40235,-16.64648 12.99804,12.67382 6.35938,36.20899 0.43164,2.45117 4.90039,-0.86133 -0.42969,-2.45117 -6.5,-37 a 2.4883987,2.4883987 0 0 0 -0.71289,-1.35156 l -16,-15.59961 a 2.4883987,2.4883987 0 0 0 -2.14648,-0.67188 z"
   id="path448" />
	
		<path
   style="color:#000000;fill:#af3a46;stroke-linecap:square;stroke-linejoin:round;stroke-miterlimit:10;-inkscape-stroke:none"
   d="m 205.40039,88.064453 c -0.67632,-0.104166 -1.34633,-0.101155 -1.99023,0.0078 -2.55867,0.433004 -4.41093,2.112197 -5.40821,4.080078 -0.50545,0.960618 -0.35524,1.241269 -0.35742,1.61914 -0.002,0.38521 0.0252,0.767848 0.0684,1.208985 0.0862,0.882273 0.24579,1.985592 0.46875,3.328125 0.44591,2.685066 1.14749,6.301976 2.01953,10.542966 1.74408,8.48199 4.17088,19.43956 6.57227,30.09571 a 2.4883987,2.4883987 0 0 0 0,0.002 c 4.51344,19.95945 9.02539,36.50586 9.02539,36.50586 l 0.65625,2.40039 4.80078,-1.31055 -0.65625,-2.40039 c 0,0 -4.48627,-16.45146 -8.97266,-36.29101 v -0.002 c -2.39846,-10.6432 -4.82192,-21.58448 -6.55273,-30.00195 -0.86546,-4.209 -1.55841,-7.79249 -1.98438,-10.357423 -0.21298,-1.282464 -0.35733,-2.315868 -0.42382,-2.996093 -0.0124,-0.12709 -0.0107,-0.159926 -0.0176,-0.259766 0.37388,-0.550118 1.00013,-1.157684 1.59179,-1.257812 0.6744,-0.11413 1.47874,-0.09295 2.84961,1.787109 a 2.4883987,2.4883987 0 0 0 0.0117,0.01563 c 0.0219,0.0295 0.93666,1.818188 1.83594,4.205078 0.89928,2.386892 1.99139,5.569502 3.19727,9.261722 2.41175,7.38443 5.28351,16.82138 8.08007,26.25976 a 2.4883987,2.4883987 0 0 0 0.002,0.004 c 3.14556,10.53512 6.19178,21.10227 8.41601,28.84961 1.11212,3.87367 2.01936,7.0407 2.63086,9.15429 0.30575,1.0568 0.53657,1.84604 0.68945,2.34961 0.0764,0.25179 0.11831,0.39636 0.19336,0.60352 0.0188,0.0518 0.0314,0.0953 0.0996,0.24219 0.0341,0.0734 0.0443,0.14789 0.25586,0.43554 0.10579,0.14383 0.8452,0.72825 0.84571,0.72852 5e-4,2.7e-4 3.11491,-0.65585 3.11523,-0.65625 3.2e-4,-4e-4 0.48997,-1.03074 0.51563,-1.23438 0.0256,-0.20363 0.0218,-0.30446 0.0195,-0.38476 -0.005,-0.16061 -0.016,-0.22417 -0.0234,-0.2793 -0.0149,-0.11026 -0.0251,-0.1585 -0.0352,-0.20898 l -0.48828,-2.43946 -0.23633,0.0469 c -0.0678,-0.23306 -0.0941,-0.31711 -0.17187,-0.58594 -0.60725,-2.0989 -1.51407,-5.26821 -2.62695,-9.14453 -2.22531,-7.75105 -5.27595,-18.33183 -8.42969,-28.89453 l -0.002,-0.006 c -2.80284,-9.45948 -5.68144,-18.92088 -8.11914,-26.38476 -1.21912,-3.73278 -2.32701,-6.963853 -3.27148,-9.470708 -0.94288,-2.502631 -1.5151,-4.087081 -2.49023,-5.40625 -1.59595,-2.184158 -3.67707,-3.449671 -5.70313,-3.761719 z"
   id="path445" />
	<g
   id="path75"><path
     style="color:#000000;fill:#af3a46;stroke-width:2.4882;stroke-miterlimit:10;-inkscape-stroke:none"
     d="m 200.2,93.3 c -11.6,-12.2 -10.4,-19.2 -6.6,-23 6.6,-6.6 -2.8,-16.6 -0.9,-16.8 6.6,-0.6 28.6,9.6 17.3,36.9"
     id="path442" /><path
     style="color:#000000;fill:#af3a46;stroke-miterlimit:10;-inkscape-stroke:none"
     d="m 192.57812,52.261719 -0.008,0.002 c -0.41366,0.04354 -1.03494,0.411549 -1.24219,0.890625 -0.20724,0.479076 -0.14047,0.826563 -0.084,1.103515 0.11298,0.553906 0.33445,1.001818 0.60156,1.560547 0.53423,1.117459 1.29713,2.544013 1.90625,4.128907 0.60912,1.584893 1.04858,3.305154 0.98242,4.919921 -0.0662,1.614768 -0.57915,3.118221 -2.01367,4.552735 -2.12378,2.123784 -3.56119,5.335151 -2.82031,9.451172 0.74088,4.11602 3.50181,9.085481 9.39844,15.287109 l 1.80273,-1.714844 c -5.70336,-5.998359 -8.14284,-10.6297 -8.75195,-14.013672 -0.60912,-3.383971 0.45465,-5.573787 2.13086,-7.25 1.86548,-1.865483 2.65131,-4.088209 2.73828,-6.210937 0.087,-2.122728 -0.46615,-4.150913 -1.14453,-5.916016 -0.65751,-1.71079 -1.4319,-3.157317 -1.92383,-4.175781 1.36724,0.133937 3.10175,0.501247 5.10547,1.425781 2.66393,1.229163 5.53226,3.2028 7.85156,5.982422 4.63861,5.559245 7.26213,14.302894 1.74219,27.638672 l 2.30078,0.951172 c 5.78005,-13.964195 3.05357,-23.96785 -2.13281,-30.183594 -2.59319,-3.107871 -5.75651,-5.280728 -8.72071,-6.648437 -2.96419,-1.36771 -5.6804,-1.965666 -7.70898,-1.78125 z"
     id="path439" /></g>
	
		<path
   style="color:#000000;fill:#af3a46;stroke-linecap:round;stroke-linejoin:round;stroke-miterlimit:10;-inkscape-stroke:none"
   d="m 255.74805,104.88672 c -6.6513,-0.24325 -11.52149,1.82226 -11.52149,1.82226 a 2.4881499,2.4881499 0 0 0 -1.3164,3.26368 2.4881499,2.4881499 0 0 0 3.26171,1.31836 c 0,0 10.13204,-4.30858 20.25,1.74414 a 2.4881499,2.4881499 0 0 0 3.41407,-0.85743 2.4881499,2.4881499 0 0 0 -0.85938,-3.4121 c -4.60575,-2.75523 -9.23773,-3.73296 -13.22851,-3.87891 z"
   id="path436" />
	
		<g
   id="path79"><path
     style="color:#000000;fill:#fffbe8;stroke-width:4.9763;stroke-linecap:round;stroke-linejoin:round;stroke-miterlimit:10;-inkscape-stroke:none"
     d="m 200.1,139.2 c 0,4.7 -12.2,4.7 -12.2,4.7 -3.2,5.3 -14.1,0 -14.1,0"
     id="path433" /><path
     style="color:#000000;fill:#af3a46;stroke-linecap:round;stroke-linejoin:round;stroke-miterlimit:10;-inkscape-stroke:none"
     d="m 200.09961,136.71094 a 2.4881499,2.4881499 0 0 0 -2.48828,2.48828 c 0,0.0986 0.0668,0.14321 -0.66211,0.56445 -0.72897,0.42125 -2.04619,0.84086 -3.41992,1.10547 -2.74748,0.52923 -5.62891,0.54297 -5.62891,0.54297 a 2.4883987,2.4883987 0 0 0 -2.13086,1.20117 c -0.38211,0.63287 -0.84621,0.90131 -1.83594,1.06836 -0.98972,0.16706 -2.39075,0.0634 -3.76757,-0.22852 -2.75365,-0.58377 -5.27735,-1.79101 -5.27735,-1.79101 a 2.4881499,2.4881499 0 0 0 -3.32617,1.15039 2.4881499,2.4881499 0 0 0 1.15039,3.32422 c 0,0 2.92552,1.44432 6.42188,2.18555 1.74817,0.37061 3.67293,0.59739 5.62695,0.26757 1.49114,-0.25169 2.9469,-1.09685 4.15039,-2.29882 0.77661,-0.01 2.72232,0.0112 5.55859,-0.53516 1.67626,-0.32289 3.41022,-0.78297 4.96875,-1.68359 1.55854,-0.90063 3.14844,-2.62162 3.14844,-4.87305 a 2.4881499,2.4881499 0 0 0 -2.48828,-2.48828 z"
     id="path430" /></g>
	<path
   fill="#AF3A46"
   d="M190.9,130.3c3.4,3.3-12,3.5-12,3.5l5.1-10.2L190.9,130.3z"
   id="path427" />
	
		<path
   style="color:#000000;fill:#af3a46;stroke-linecap:round;stroke-linejoin:round;stroke-miterlimit:10;-inkscape-stroke:none"
   d="m 222.625,133.17969 a 2.4881499,2.4881499 0 0 0 -1.54297,1.11523 c 0,0 -2.8738,4.81641 -9.28125,4.81641 a 2.4881499,2.4881499 0 0 0 -2.48828,2.48828 2.4881499,2.4881499 0 0 0 2.48828,2.48828 c 8.99254,0 13.51758,-7.18164 13.51758,-7.18164 a 2.4881499,2.4881499 0 0 0 -0.8125,-3.42383 2.4881499,2.4881499 0 0 0 -1.88086,-0.30273 z"
   id="path424" />
	
		<path
   style="color:#000000;fill:#af3a46;stroke-linecap:round;stroke-linejoin:round;stroke-miterlimit:10;-inkscape-stroke:none"
   d="m 235.81055,171.80859 c -21.63989,-0.47229 -45.54948,3.80956 -67.9043,14.75782 a 2.4883987,2.4883987 0 0 0 -1.38281,2.47461 l 12.80078,132 a 2.4883987,2.4883987 0 0 0 1.47461,2.0371 c 56.23749,24.71196 97.45117,0.97266 97.45117,0.97266 a 2.4883987,2.4883987 0 0 0 1.22852,-1.93359 L 291.2793,187.91797 a 2.4883987,2.4883987 0 0 0 -1.1875,-2.34375 c -13.27228,-8.06747 -32.64137,-13.29333 -54.28125,-13.76563 z m -0.0215,5.13282 c 20.23298,0.46223 38.15899,5.19086 50.38477,12.22656 l -11.52735,131.08984 c -2.91014,1.62367 -39.03624,20.78877 -90.51562,-1.21094 L 171.64844,190.33789 c 21.10812,-9.99721 43.72905,-13.8628 64.14062,-13.39648 z"
   id="path421" />
	
		<path
   style="color:#000000;fill:#af3a46;stroke-linecap:round;stroke-linejoin:round;stroke-miterlimit:10;-inkscape-stroke:none"
   d="m 227.67187,216.95703 -24.0996,17.69922 a 2.4116412,2.4116412 0 0 0 -0.98243,2.00586 c 0.30284,11.91164 1.40206,22.91127 1.69922,34.59961 l 2.41016,-2.47266 c -3.9e-4,0 -0.6509,4.73228 -0.65039,4.73242 5.1e-4,1.5e-4 0.15258,0.0383 0.17578,0.043 0.0464,0.009 0.0586,0.0109 0.0742,0.0137 0.0312,0.006 0.0557,0.0103 0.0879,0.0156 0.0645,0.0106 0.1507,0.0236 0.26367,0.041 0.22595,0.0348 0.55467,0.0843 0.98047,0.14453 0.85159,0.12043 2.08852,0.28503 3.63476,0.46484 3.09249,0.35963 7.42244,0.7803 12.38868,1.02734 9.93247,0.49409 22.37277,0.33256 32.69336,-2.54882 a 2.4116412,2.4116412 0 0 0 1.75781,-2.48438 l -2.19922,-32.60156 a 2.4116412,2.4116412 0 0 0 -0.92969,-1.74219 l -24.40039,-18.90039 a 2.4116412,2.4116412 0 0 0 -2.9043,-0.0371 z m 1.38868,4.96289 22.10742,17.12305 1.98633,29.42773 c -9.08892,2.17546 -20.20632,2.43279 -29.25977,1.98242 -4.83375,-0.24045 -9.06475,-0.65025 -12.07226,-1 -1.20219,-0.1398 -2.03914,-0.25401 -2.81055,-0.35937 -0.35433,-10.68887 -1.2219,-20.77991 -1.54102,-31.31641 z"
   id="path418" />
	
		<path
   style="color:#000000;fill:#af3a46;stroke-linecap:round;stroke-linejoin:round;stroke-miterlimit:10;-inkscape-stroke:none"
   d="M 229.5,216.5 A 2.5,2.5 0 0 0 227,219 v 27 a 2.5,2.5 0 0 0 2.5,2.5 2.5,2.5 0 0 0 2.5,-2.5 v -27 a 2.5,2.5 0 0 0 -2.5,-2.5 z"
   id="path415" />
	
		<path
   style="color:#000000;fill:#af3a46;stroke-linecap:round;stroke-linejoin:round;stroke-miterlimit:10;-inkscape-stroke:none"
   d="m 233.19922,238.87109 c -1.75721,0 -3.03662,0.30263 -6.84961,0.40039 l 0.28516,0.10547 c -0.27891,-0.0599 -0.52463,-0.17166 -0.88672,-0.0723 -0.57104,0.15675 -1.01806,0.57967 -1.24219,0.92968 -0.22413,0.35002 -0.311,0.6514 -0.37695,0.95118 -0.26381,1.1991 -0.20293,2.68681 0.25781,6.16797 a 1.9292929,1.9292929 0 0 0 1.84765,1.67382 c 2.87253,0.0991 4.0205,0.20118 6.96485,0.20118 a 1.9292929,1.9292929 0 0 0 1.92969,-1.92774 v -6.5 a 1.9292929,1.9292929 0 0 0 -1.92969,-1.92969 z m -8.08985,3.76368 a 1.9292929,1.9292929 0 0 0 0.89844,0.33203 c -0.51276,-0.10989 -0.89844,-0.33203 -0.89844,-0.33203 z m 6.16211,0.20898 v 2.4707 c -0.98647,-0.0221 -2.1405,-0.0486 -3.16406,-0.0918 -0.0643,-0.95821 -0.15568,-1.88103 -0.14453,-2.1836 1.46602,-0.0808 2.53413,-0.13179 3.30859,-0.19531 z"
   id="path412" />
</g>
</svg>
